<svg xmlns="http://www.w3.org/2000/svg" width="96" height="40" viewBox="0 0 96 40">
    <g fill="none" fill-rule="evenodd">
        <path fill="#000" stroke="#A6A6A6" d="M.5.5h95v39H.5z"/>
        <path fill="#FFF" fill-rule="nonzero" d="M33.842 24.912h-3.787l-.91 2.685h-1.603l3.587-9.935h1.666l3.587 9.935H34.75l-.908-2.685zm-3.395-1.24h3.002l-1.48-4.357h-.041l-1.48 4.358zm13.68.304c0 2.25-1.204 3.697-3.022 3.697a2.455 2.455 0 0 1-2.279-1.268h-.034v3.588h-1.487v-9.64h1.44v1.206h.027a2.57 2.57 0 0 1 2.306-1.28c1.838 0 3.05 1.452 3.05 3.697zm-1.527 0c0-1.467-.758-2.43-1.914-2.43-1.136 0-1.9.984-1.9 2.43 0 1.46.764 2.437 1.9 2.437 1.156 0 1.914-.958 1.914-2.437zm9.5 0c0 2.25-1.205 3.697-3.023 3.697a2.455 2.455 0 0 1-2.279-1.268h-.034v3.588h-1.487v-9.64h1.439v1.206h.027a2.57 2.57 0 0 1 2.307-1.28c1.838 0 3.05 1.452 3.05 3.697zm-1.528 0c0-1.467-.758-2.43-1.915-2.43-1.136 0-1.9.984-1.9 2.43 0 1.46.764 2.437 1.9 2.437 1.157 0 1.915-.958 1.915-2.437zm6.796.853c.11.985 1.068 1.632 2.375 1.632 1.254 0 2.155-.647 2.155-1.535 0-.771-.544-1.233-1.831-1.55l-1.288-.31c-1.824-.44-2.67-1.293-2.67-2.678 0-1.714 1.493-2.891 3.614-2.891 2.1 0 3.538 1.177 3.587 2.891h-1.501c-.09-.991-.91-1.59-2.107-1.59-1.198 0-2.017.606-2.017 1.487 0 .702.523 1.116 1.804 1.432l1.094.269c2.038.482 2.885 1.3 2.885 2.754 0 1.858-1.48 3.022-3.835 3.022-2.203 0-3.69-1.136-3.787-2.933h1.522zm9.309-6.19v1.715h1.377v1.177h-1.377v3.993c0 .62.276.91.881.91.164-.003.327-.015.49-.035v1.17c-.273.051-.55.074-.827.07-1.466 0-2.038-.552-2.038-1.956V21.53H64.13v-1.177h1.053V18.64h1.494zm2.175 5.337c0-2.28 1.342-3.711 3.435-3.711 2.1 0 3.436 1.432 3.436 3.71 0 2.286-1.329 3.712-3.436 3.712-2.106 0-3.435-1.426-3.435-3.711zm5.356 0c0-1.563-.716-2.486-1.92-2.486-1.206 0-1.921.93-1.921 2.486 0 1.57.715 2.485 1.92 2.485s1.921-.916 1.921-2.485zm2.74-3.622h1.419v1.233h.034a1.728 1.728 0 0 1 1.742-1.309c.172 0 .343.018.51.056v1.39a2.078 2.078 0 0 0-.668-.09 1.498 1.498 0 0 0-1.55 1.667v4.296H76.95v-7.243zm10.56 5.116c-.2 1.314-1.481 2.217-3.12 2.217-2.106 0-3.414-1.412-3.414-3.677 0-2.272 1.315-3.745 3.352-3.745 2.004 0 3.264 1.376 3.264 3.572v.51h-5.115v.09a1.886 1.886 0 0 0 1.948 2.051 1.639 1.639 0 0 0 1.673-1.018h1.411zm-5.026-2.162h3.62a1.742 1.742 0 0 0-1.776-1.838 1.834 1.834 0 0 0-1.844 1.838zM30.261 10.185a2.112 2.112 0 0 1 2.246 2.372c0 1.525-.824 2.401-2.246 2.401h-1.724v-4.773h1.724zm-.983 4.098h.9a1.5 1.5 0 0 0 1.574-1.717 1.505 1.505 0 0 0-1.574-1.707h-.9v3.424zm4.067-1.128a1.707 1.707 0 1 1 3.397 0 1.707 1.707 0 1 1-3.397 0zm2.666 0c0-.78-.35-1.237-.966-1.237-.618 0-.966.457-.966 1.237 0 .788.348 1.24.966 1.24.615 0 .966-.456.966-1.24zm5.248 1.803h-.738l-.744-2.653h-.057l-.741 2.653h-.73l-.994-3.602h.722l.645 2.749h.053l.74-2.75h.683l.74 2.75h.057l.642-2.75h.71l-.988 3.603zm1.824-3.602h.684v.572h.053c.185-.421.617-.679 1.075-.642a1.172 1.172 0 0 1 1.247 1.34v2.332h-.71v-2.153c0-.58-.252-.867-.778-.867a.826.826 0 0 0-.86.913v2.107h-.711v-3.602zm4.192-1.406h.711v5.008h-.711V9.95zm1.7 3.205a1.707 1.707 0 1 1 3.397 0 1.707 1.707 0 1 1-3.398 0zm2.666 0c0-.78-.351-1.237-.967-1.237-.618 0-.965.457-.965 1.237 0 .788.347 1.24.965 1.24.616 0 .967-.456.967-1.24zm1.48.784c0-.648.483-1.022 1.34-1.075l.975-.056v-.311c0-.38-.251-.595-.737-.595-.397 0-.672.145-.75.4h-.69c.073-.619.655-1.016 1.473-1.016.903 0 1.412.45 1.412 1.21v2.462h-.684v-.506h-.056c-.233.37-.646.586-1.082.566a1.088 1.088 0 0 1-1.201-1.079zm2.315-.307v-.302l-.88.057c-.495.033-.72.202-.72.52 0 .323.28.512.668.512a.85.85 0 0 0 .932-.787zm1.643-.477c0-1.138.585-1.859 1.495-1.859.46-.021.89.225 1.105.632h.053V9.95h.71v5.008h-.68v-.569h-.057a1.25 1.25 0 0 1-1.131.629c-.917 0-1.495-.722-1.495-1.863zm.734 0c0 .765.36 1.224.962 1.224.6 0 .97-.466.97-1.22 0-.751-.374-1.224-.97-1.224-.598 0-.962.463-.962 1.22zm5.571 0a1.707 1.707 0 1 1 3.398 0 1.707 1.707 0 1 1-3.398 0zm2.666 0c0-.78-.35-1.237-.966-1.237-.618 0-.966.457-.966 1.237 0 .788.348 1.24.966 1.24.616 0 .966-.456.966-1.24zm1.686-1.8h.684v.573h.053c.185-.421.617-.679 1.075-.642a1.172 1.172 0 0 1 1.247 1.34v2.332h-.711v-2.153c0-.58-.252-.867-.777-.867a.826.826 0 0 0-.86.913v2.107h-.711v-3.602zm7.076-.896v.913h.78v.6h-.78v1.851c0 .378.156.543.51.543.09 0 .18-.006.27-.016v.592a2.332 2.332 0 0 1-.386.036c-.79 0-1.106-.278-1.106-.973v-2.034h-.571v-.599h.571v-.913h.712zm1.752-.51h.704v1.986h.057a1.108 1.108 0 0 1 1.098-.646 1.187 1.187 0 0 1 1.24 1.343v2.326h-.711v-2.15c0-.576-.268-.867-.77-.867a.842.842 0 0 0-.907.913v2.104h-.711V9.95zm7.245 4.037c-.2.679-.857 1.118-1.56 1.042a1.636 1.636 0 0 1-1.665-1.86 1.661 1.661 0 0 1 1.66-1.882c1.003 0 1.608.685 1.608 1.816v.248h-2.544v.04a.952.952 0 0 0 .96 1.032.863.863 0 0 0 .857-.436h.684zm-2.5-1.161h1.819a.87.87 0 0 0-.887-.934.921.921 0 0 0-.933.934zM19.815 19.44A3.959 3.959 0 0 1 21.7 16.12a4.053 4.053 0 0 0-3.193-1.726c-1.343-.141-2.645.804-3.33.804-.698 0-1.752-.79-2.887-.767a4.252 4.252 0 0 0-3.578 2.182c-1.547 2.68-.393 6.616 1.089 8.781.741 1.06 1.608 2.245 2.742 2.203 1.11-.046 1.524-.708 2.864-.708 1.327 0 1.715.708 2.872.681 1.191-.02 1.941-1.065 2.657-2.135a8.77 8.77 0 0 0 1.214-2.474 3.826 3.826 0 0 1-2.335-3.52zM17.63 12.97c.649-.78.969-1.781.891-2.793a3.966 3.966 0 0 0-2.566 1.328 3.71 3.71 0 0 0-.915 2.689 3.28 3.28 0 0 0 2.59-1.224z"/>
    </g>
</svg>
