 <svg
          version="1.1"
          xmlns="http://www.w3.org/2000/svg"
          width="32px"
          height="32px"
          viewBox="0 0 39 32">
          <path
            fill="#fff"
            d="M39.376 3.788c-1.351 0.615-2.918 1.063-4.561 1.264 1.593-1.004 2.848-2.557 3.458-4.404-1.46 0.835-3.179 1.515-5.010 1.886-1.582-1.555-3.676-2.534-5.999-2.534-4.465 0-8.085 3.62-8.085 8.085 0 0.651 0.077 1.283 0.222 1.889-6.74-0.403-12.658-3.601-16.627-8.455-0.719 1.123-1.124 2.523-1.124 4.018 0 2.791 1.413 5.253 3.563 6.708-1.321-0.025-2.576-0.394-3.671-1.012 0.040 0.055 0.040 0.088 0.040 0.122 0.001 3.896 2.758 7.148 6.428 7.912-0.584 0.189-1.316 0.293-2.071 0.293-0.539 0-1.066-0.053-1.575-0.153 1.116 3.241 4.076 5.547 7.586 5.619-2.719 2.156-6.207 3.458-9.999 3.458-0.006 0-0.013 0-0.019 0-0.002 0-0.005 0-0.008 0-0.678 0-1.346-0.041-2.002-0.121 3.573 2.284 7.848 3.637 12.44 3.637 0.008 0 0.015 0 0.023 0 14.856 0 22.983-12.309 22.983-22.986q0-0.525-0.023-1.045c1.588-1.156 2.926-2.542 3.995-4.124z"></path>
        </svg>